PathFileType	4	(X/Y/Z)	Walk2.trc
DataRate	CameraRate	NumFrames	NumMarkers	Units	OrigDataRate	OrigDataStartFrame	OrigNumFrames
200.000000	200.000000	9	59	mm	200.000000	228	389
Frame#	Times		LFHD		RFHD		LBHD		RBHD		C7		T10		CLAV		STRN		RBack		LASI		RASI		LPSI		RPSI		RACR1		RUA1		RElbow		RFA1		RWRR		RWRU		RCAR		LACR1		LUA1		LElbow		LElbowM		LFA1		LWRR		LWRU		LCAR		RTH1		RTH3		RTH2		RTH4		RLFC		RTB1		RTB3		RTB2		RTB4		RLMAL		RMMAL		RCAL		RMT1		RMT5		RToe		LTH1		LTH3		LTH2		LTH4		LLFC		LTB1		LTB3		LTB2		LTB4		LLMAL		LMMAL		LCAL		LMT1		LMT5		LToe		RElbowM
			X1	Y1	Z1	X2	Y2	Z2	X3	Y3	Z3	X4	Y4	Z4	X5	Y5	Z5	X6	Y6	Z6	X7	Y7	Z7	X8	Y8	Z8	X9	Y9	Z9	X10	Y10	Z10	X11	Y11	Z11	X12	Y12	Z12	X13	Y13	Z13	X14	Y14	Z14	X15	Y15	Z15	X16	Y16	Z16	X17	Y17	Z17	X18	Y18	Z18	X19	Y19	Z19	X20	Y20	Z20	X21	Y21	Z21	X22	Y22	Z22	X23	Y23	Z23	X24	Y24	Z24	X25	Y25	Z25	X26	Y26	Z26	X27	Y27	Z27	X28	Y28	Z28	X29	Y29	Z29	X30	Y30	Z30	X31	Y31	Z31	X32	Y32	Z32	X33	Y33	Z33	X34	Y34	Z34	X35	Y35	Z35	X36	Y36	Z36	X37	Y37	Z37	X38	Y38	Z38	X39	Y39	Z39	X40	Y40	Z40	X41	Y41	Z41	X42	Y42	Z42	X43	Y43	Z43	X44	Y44	Z44	X45	Y45	Z45	X46	Y46	Z46	X47	Y47	Z47	X48	Y48	Z48	X49	Y49	Z49	X50	Y50	Z50	X51	Y51	Z51	X52	Y52	Z52	X53	Y53	Z53	X54	Y54	Z54	X55	Y55	Z55	X56	Y56	Z56	X57	Y57	Z57	X58	Y58	Z58	X59	Y59	Z59

228	1.14	278.07	1600.2	-40.745	282.88	1599.6	53.801	127.33	1546.3	-62.58	130.19	1552.9	78.052	96.153	1419.5	14.538	32.507	1150.6	7.6127	235.47	1345.5	5.2587	299.1	1243.6	11.452	48.761	1320.3	118.78	288.76	958.88	-130.54	296.54	988.2	160.98	45.485	961.11	-24.876	47.586	971.97	64.518	173	1378.2	161.48	166.16	1197.7	258.9	120.36	1075.9	289.05	143.02	931.25	310.38	233.73	842.03	277.57	179.24	827.92	321.17	248.71	793.33	330.25	172.39	1381.4	-149.04	182.09	1197.9	-238.92	161.42	1069.2	-263.77	120.63	1042	-194.81	189.47	932.5	-268.95	267.18	839.81	-206.65	230.58	822.87	-266.54	293.43	791.82	-240.48	227.23	752.08	233.99	225.01	585.89	186.02	281.48	674.03	191.26	224.66	667.98	208.17	222.83	499.35	159.4	258.51	344.28	80.581	240.52	172.65	76.108	229.46	259.31	134.39	249.82	257.42	74.813	195.74	60.457	98.24	208.16	69.912	16.096	132.02	27.513	63.971	310.22	33.805	35.624	281.18	25.464	113.76	378.73	28.988	62.658	205.86	750.31	-198.87	240.6	587.73	-159.38	279.63	685.78	-166.94	223.18	670.49	-173.38	259.95	472.67	-138.74	218.99	328.76	-74.96	73.779	234.55	-76.097	127.69	307.1	-126.1	145.18	281.57	-73.45	-39.991	199.73	-95.607	-18.95	184.36	-14.303	-94.789	229.23	-50.293	-30.14	97.564	-102.84	3.605	81.035	-35.958	36.31	33.054	-72.796	111.99	1040.9	195.71
229	1.145	283.88	1600.4	-40.506	288.68	1599.8	54.043	133.05	1546.8	-62.374	135.9	1553.3	78.258	101.8	1419.9	14.812	37.864	1151.1	8.1938	241.06	1345.8	5.3461	304.64	1243.7	11.131	54.377	1320.8	119.18	293.92	959.5	-130.32	301.76	988.03	161.08	50.614	961.67	-24.413	52.854	972.46	64.956	178.73	1378.7	161.64	172.59	1198.3	259.3	127.57	1076.4	289.8	151.37	931.97	311.3	242.79	843.45	278.19	188.55	828.91	321.99	258.41	795.1	331	177.7	1381.7	-148.94	186.37	1198	-238.83	165.03	1069.5	-263.66	123.8	1042.5	-194.89	191.65	932.64	-269.27	268.35	838.91	-207.33	231.45	822.59	-267.21	293.87	790.54	-241.24	231.26	751.91	233.97	227.85	585.82	185.8	284.92	673.56	191.01	228.1	667.88	208.02	224.54	499.3	159.34	259.09	344.23	80.585	240.77	172.62	76.086	229.9	259.3	134.4	250.23	257.38	74.814	195.76	60.502	98.197	208.17	69.94	16.076	132.03	27.607	63.964	310.23	33.796	35.624	281.17	25.45	113.76	378.69	29.041	62.717	211.19	750.64	-198.59	249.04	588.69	-159.36	286.4	687.35	-167.57	230.09	671.15	-173.24	270.17	474.04	-138.74	231.24	329.77	-74.772	87.384	233.56	-75.86	140.24	306.82	-125.88	158.14	281.59	-73.234	-25.846	197.11	-95.29	-4.4265	181.96	-14.051	-81.661	224.96	-49.831	-12.994	95.895	-103.44	21.392	79.734	-36.747	55.58	33.18	-73.956	118.99	1041.2	196.55
230	1.15	289.67	1600.6	-40.279	294.46	1600	54.272	138.76	1547.2	-62.181	141.62	1553.7	78.45	107.46	1420.3	15.079	43.211	1151.5	8.7679	246.66	1346	5.4164	310.18	1243.8	10.778	59.998	1321.2	119.57	299.11	960.11	-130.06	306.95	987.87	161.2	55.736	962.19	-24.002	58.103	972.9	65.339	184.47	1379.1	161.79	178.98	1198.9	259.7	134.74	1076.9	290.53	159.69	932.67	312.17	251.83	844.87	278.79	197.84	829.89	322.76	268.08	796.87	331.74	183.01	1381.9	-148.85	190.64	1198.2	-238.74	168.6	1069.8	-263.55	126.93	1043	-194.97	193.81	932.78	-269.61	269.53	838.03	-208.05	232.3	822.32	-267.9	294.31	789.3	-242.07	235.35	751.72	233.91	230.68	585.75	185.56	288.36	673.07	190.69	231.57	667.78	207.83	226.2	499.25	159.29	259.68	344.18	80.644	241.01	172.6	76.092	230.3	259.29	134.44	250.64	257.35	74.857	195.78	60.548	98.158	208.2	69.974	16.055	132.03	27.704	63.954	310.24	33.788	35.626	281.16	25.438	113.75	378.66	29.096	62.775	216.52	750.89	-198.31	257.44	589.63	-159.29	293.12	688.87	-168.17	236.98	671.77	-173.09	280.31	475.4	-138.68	243.49	330.76	-74.532	101.13	232.4	-75.585	152.84	306.41	-125.63	171.17	281.52	-72.971	-11.476	194.19	-94.975	10.295	179.31	-13.782	-68.332	220.3	-49.408	4.4823	94.032	-103.98	39.425	78.309	-37.445	75.167	33.28	-74.953	126.01	1041.5	197.35
231	1.155	295.46	1600.7	-40.065	300.24	1600	54.488	144.46	1547.6	-62.002	147.33	1554	78.628	113.11	1420.7	15.339	48.55	1152	9.3351	252.25	1346.2	5.4694	315.7	1243.8	10.397	65.627	1321.7	119.95	304.33	960.72	-129.79	312.11	987.72	161.34	60.852	962.67	-23.646	63.331	973.29	65.666	190.23	1379.5	161.92	185.33	1199.5	260.1	141.88	1077.4	291.22	167.98	933.34	313	260.86	846.28	279.37	207.08	830.86	323.49	277.69	798.63	332.46	188.34	1382.1	-148.75	194.89	1198.3	-238.65	172.12	1070.1	-263.44	130.04	1043.6	-195.03	195.93	932.92	-269.96	270.73	837.18	-208.8	233.14	822.06	-268.58	294.76	788.11	-242.95	239.52	751.5	233.82	233.5	585.68	185.31	291.79	672.56	190.3	235.06	667.66	207.63	227.83	499.21	159.26	260.29	344.15	80.758	241.26	172.59	76.13	230.66	259.29	134.5	251.06	257.33	74.942	195.8	60.597	98.122	208.23	70.014	16.034	132.04	27.807	63.94	310.25	33.781	35.633	281.15	25.425	113.75	378.63	29.152	62.834	221.85	751.07	-198.04	265.78	590.56	-159.17	299.8	690.34	-168.76	243.85	672.34	-172.92	290.36	476.75	-138.56	255.72	331.73	-74.241	115.03	231.08	-75.276	165.51	305.86	-125.35	184.26	281.35	-72.665	3.1233	190.96	-94.668	25.211	176.43	-13.501	-54.787	215.25	-49.033	22.273	91.992	-104.47	57.684	76.776	-38.046	95.035	33.361	-75.781	133.05	1041.8	198.12
232	1.16	301.24	1600.8	-39.864	306.02	1600.1	54.692	150.17	1547.9	-61.836	153.03	1554.3	78.793	118.77	1421	15.594	53.882	1152.3	9.8958	257.85	1346.3	5.5051	321.22	1243.8	9.9915	71.27	1322.1	120.33	309.59	961.31	-129.49	317.24	987.58	161.49	65.962	963.1	-23.345	68.539	973.64	65.937	196.01	1379.8	162.04	191.64	1200	260.5	148.98	1077.8	291.88	176.23	934	313.77	269.87	847.67	279.93	216.3	831.83	324.18	287.25	800.39	333.17	193.67	1382.2	-148.66	199.13	1198.3	-238.56	175.6	1070.3	-263.34	133.14	1044	-195.08	198.01	933.05	-270.32	271.94	836.35	-209.59	233.95	821.8	-269.26	295.22	786.97	-243.9	243.76	751.27	233.71	236.3	585.6	185.06	295.22	672.03	189.85	238.58	667.54	207.42	229.43	499.17	159.24	260.92	344.11	80.924	241.51	172.58	76.198	230.99	259.28	134.59	251.49	257.3	75.068	195.82	60.648	98.091	208.27	70.06	16.013	132.04	27.915	63.924	310.26	33.775	35.643	281.14	25.412	113.75	378.6	29.207	62.89	227.2	751.17	-197.77	274.07	591.46	-159.01	306.43	691.75	-169.32	250.71	672.86	-172.75	300.31	478.09	-138.37	267.94	332.67	-73.902	129.06	229.61	-74.938	178.22	305.19	-125.04	197.4	281.1	-72.319	17.953	187.46	-94.375	40.319	173.33	-13.212	-41.012	209.85	-48.716	40.36	89.79	-104.91	76.154	75.147	-38.552	115.15	33.425	-76.442	140.11	1042	198.85
233	1.165	307.01	1600.9	-39.674	311.78	1600.1	54.882	155.87	1548.2	-61.684	158.73	1554.5	78.945	124.43	1421.2	15.842	59.207	1152.7	10.45	263.44	1346.4	5.5239	326.72	1243.8	9.5652	76.927	1322.5	120.69	314.87	961.86	-129.17	322.34	987.45	161.67	71.067	963.48	-23.1	73.726	973.92	66.152	201.81	1380.1	162.15	197.92	1200.5	260.89	156.05	1078.2	292.51	184.45	934.63	314.5	278.86	849.06	280.46	225.47	832.77	324.83	296.76	802.14	333.85	199	1382.3	-148.57	203.36	1198.3	-238.46	179.03	1070.5	-263.25	136.24	1044.5	-195.1	200.06	933.16	-270.68	273.17	835.53	-210.42	234.76	821.54	-269.93	295.7	785.87	-244.91	248.07	751.03	233.57	239.08	585.52	184.81	298.65	671.46	189.36	242.1	667.41	207.19	231	499.13	159.25	261.59	344.07	81.135	241.77	172.57	76.296	231.3	259.28	134.71	251.94	257.27	75.232	195.84	60.7	98.063	208.32	70.109	15.992	132.04	28.03	63.905	310.28	33.768	35.657	281.14	25.399	113.76	378.57	29.261	62.945	232.56	751.2	-197.52	282.3	592.35	-158.79	313.02	693.1	-169.85	257.55	673.34	-172.56	310.15	479.42	-138.12	280.14	333.59	-73.515	143.24	228	-74.578	190.99	304.4	-124.71	210.6	280.75	-71.936	33.014	183.7	-94.1	55.617	170.03	-12.916	-26.989	204.11	-48.462	58.725	87.442	-105.31	94.818	73.434	-38.965	135.48	33.475	-76.941	147.17	1042.3	199.54
234	1.17	312.77	1601	-39.498	317.54	1600.1	55.059	161.56	1548.4	-61.546	164.43	1554.6	79.083	130.08	1421.5	16.084	64.527	1153	10.997	269.03	1346.5	5.5263	332.22	1243.7	9.123	82.603	1322.8	121.06	320.18	962.37	-128.84	327.41	987.33	161.87	76.167	963.8	-22.91	78.891	974.15	66.311	207.64	1380.4	162.24	204.17	1201	261.28	163.08	1078.6	293.12	192.63	935.23	315.19	287.82	850.43	280.96	234.6	833.7	325.43	306.21	803.88	334.51	204.32	1382.3	-148.48	207.57	1198.3	-238.36	182.41	1070.7	-263.15	139.35	1044.9	-195.08	202.09	933.27	-271.05	274.44	834.73	-211.28	235.55	821.28	-270.6	296.2	784.82	-245.98	252.47	750.77	233.41	241.81	585.45	184.57	302.06	670.87	188.83	245.63	667.28	206.97	232.55	499.09	159.29	262.29	344.03	81.383	242.03	172.56	76.42	231.6	259.28	134.84	252.41	257.24	75.427	195.87	60.753	98.039	208.37	70.162	15.973	132.03	28.15	63.884	310.29	33.761	35.674	281.13	25.386	113.76	378.55	29.312	62.997	237.95	751.18	-197.27	290.45	593.21	-158.53	319.56	694.39	-170.35	264.36	673.78	-172.36	319.87	480.74	-137.8	292.32	334.48	-73.082	157.55	226.26	-74.198	203.82	303.48	-124.36	223.84	280.32	-71.519	48.31	179.69	-93.849	71.106	166.53	-12.62	-12.705	198.06	-48.275	77.345	84.963	-105.65	113.66	71.65	-39.292	155.98	33.512	-77.289	154.24	1042.5	200.2
235	1.175	318.53	1600.9	-39.334	323.29	1600.1	55.221	167.25	1548.6	-61.423	170.13	1554.7	79.207	135.74	1421.7	16.321	69.842	1153.2	11.538	274.61	1346.5	5.5131	337.69	1243.6	8.6698	88.299	1323.1	121.43	325.51	962.83	-128.51	332.46	987.2	162.1	81.262	964.07	-22.774	84.034	974.33	66.415	213.49	1380.7	162.32	210.39	1201.4	261.66	170.07	1078.9	293.7	200.77	935.79	315.83	296.75	851.78	281.44	243.68	834.6	325.99	315.61	805.59	335.15	209.65	1382.3	-148.4	211.77	1198.3	-238.27	185.74	1070.8	-263.06	142.47	1045.3	-195.03	204.08	933.36	-271.41	275.74	833.94	-212.18	236.33	821.01	-271.25	296.72	783.8	-247.09	256.93	750.49	233.23	244.51	585.37	184.36	305.46	670.25	188.29	249.17	667.14	206.76	234.09	499.06	159.34	263.03	343.97	81.659	242.29	172.55	76.564	231.91	259.27	135	252.9	257.21	75.646	195.9	60.808	98.018	208.44	70.216	15.954	132.03	28.276	63.861	310.31	33.754	35.695	281.12	25.372	113.76	378.53	29.359	63.047	243.37	751.11	-197.03	298.51	594.06	-158.22	326.06	695.62	-170.82	271.14	674.19	-172.14	329.45	482.04	-137.42	304.45	335.35	-72.602	171.99	224.39	-73.804	216.7	302.46	-124	237.13	279.82	-71.071	63.839	175.47	-93.625	86.785	162.87	-12.327	1.8555	191.75	-48.159	96.199	82.366	-105.95	132.68	69.806	-39.541	176.63	33.537	-77.502	161.31	1042.7	200.84
236	1.18	324.28	1600.9	-39.185	329.04	1600	55.367	172.94	1548.7	-61.315	175.83	1554.8	79.318	141.41	1421.8	16.552	75.154	1153.4	12.07	280.19	1346.4	5.4851	343.16	1243.5	8.2106	94.017	1323.4	121.8	330.87	963.22	-128.17	337.48	987.08	162.35	86.353	964.28	-22.691	89.154	974.44	66.466	219.37	1380.9	162.39	216.58	1201.8	262.04	177.02	1079.2	294.26	208.87	936.32	316.42	305.64	853.11	281.89	252.72	835.48	326.49	324.95	807.28	335.75	214.96	1382.3	-148.32	215.95	1198.2	-238.17	189.03	1070.9	-262.97	145.61	1045.7	-194.95	206.05	933.43	-271.77	277.07	833.15	-213.11	237.11	820.75	-271.88	297.27	782.83	-248.26	261.44	750.21	233.05	247.17	585.3	184.16	308.85	669.61	187.74	252.7	666.99	206.56	235.62	499.04	159.42	263.81	343.91	81.951	242.57	172.53	76.721	232.23	259.27	135.16	253.42	257.16	75.882	195.94	60.863	97.998	208.51	70.27	15.935	132.02	28.41	63.837	310.32	33.745	35.72	281.11	25.358	113.77	378.52	29.4	63.095	248.82	750.99	-196.81	306.49	594.88	-157.86	332.5	696.79	-171.25	277.89	674.56	-171.91	338.89	483.32	-136.97	316.54	336.18	-72.076	186.57	222.41	-73.401	229.64	301.33	-123.63	250.46	279.24	-70.594	79.604	171.05	-93.433	102.66	159.04	-12.043	16.707	185.18	-48.115	115.27	79.666	-106.21	151.85	67.914	-39.724	197.4	33.551	-77.599	168.38	1042.8	201.44
